<svg width="55" height="55" viewBox="0 0 55 55" fill="none" xmlns="http://www.w3.org/2000/svg">
<rect width="55" height="55" rx="27.5" fill="white"/>
<path d="M19.6346 15.3323H17.1731V27.746H19.6346V15.3323ZM43.6395 17.9839L28.8703 9.29429C28.682 9.18348 28.468 9.1251 28.25 9.1251C28.032 9.1251 27.818 9.18348 27.6297 9.29429L22.7066 12.1916C22.521 12.3009 22.3669 12.4573 22.2598 12.6452C22.1527 12.8332 22.0963 13.0462 22.0962 13.2629V24.0219H24.5577V13.9767L28.25 11.8043L41.7885 19.7689V24.0219H44.25V19.0564C44.2501 18.8394 44.1937 18.6262 44.0866 18.438C43.9795 18.2498 43.8254 18.0932 43.6395 17.9839ZM14.7103 35.7304V19.0564H12.25V36.443C12.2499 36.66 12.3063 36.8732 12.4134 37.0614C12.5205 37.2496 12.6746 37.4062 12.8605 37.5155L25.7798 45.1251L27.0192 42.98L14.7103 35.7304ZM35.6346 41.401H38.0962V28.9873H35.6346V41.401ZM41.7885 41.401H44.25V33.9528H41.7885V41.401ZM29.4808 41.401H31.9423V31.4701H29.4808V41.401Z" fill="black"/>
</svg>
